/* XPM */
static char * toolbar_rqs_xpm[] = {
"64 64 231 2",
"  	c None",
". 	c #8CA1C5",
"+ 	c #788CA5",
"@ 	c #697A93",
"# 	c #5D6D7C",
"$ 	c #596A73",
"% 	c #56686D",
"& 	c #647583",
"* 	c #70819D",
"= 	c #8397B9",
"- 	c #617778",
"; 	c #5C7C58",
"> 	c #709F53",
", 	c #86BF55",
"' 	c #95D45B",
") 	c #9FE060",
"! 	c #A9E96A",
"~ 	c #A9E56D",
"{ 	c #A9DF75",
"] 	c #A3D37A",
"^ 	c #92B878",
"/ 	c #779271",
"( 	c #647674",
"_ 	c #718396",
": 	c #859ABC",
"< 	c #798CAB",
"[ 	c #617C6C",
"} 	c #639643",
"| 	c #7CC637",
"1 	c #8ADB3B",
"2 	c #91E143",
"3 	c #92DD49",
"4 	c #97E04F",
"5 	c #9DE15A",
"6 	c #A3E263",
"7 	c #ADE872",
"8 	c #B3EA7E",
"9 	c #BDF387",
"0 	c #B8EC85",
"a 	c #9BC080",
"b 	c #738A79",
"c 	c #608E4B",
"d 	c #71C226",
"e 	c #7DD824",
"f 	c #7ED529",
"g 	c #84DA2F",
"h 	c #85D834",
"i 	c #91DB46",
"j 	c #99DE53",
"k 	c #A6E469",
"l 	c #AFE778",
"m 	c #B5EB80",
"n 	c #BDF08B",
"o 	c #BCED8C",
"p 	c #677A83",
"q 	c #687A8D",
"r 	c #679C45",
"s 	c #75D11A",
"t 	c #72D115",
"u 	c #78D31E",
"v 	c #7BD324",
"w 	c #81D52C",
"x 	c #8DDA42",
"y 	c #9AE055",
"z 	c #ADE773",
"A 	c #AAD188",
"B 	c #6E827E",
"C 	c #7284A2",
"D 	c #66934E",
"E 	c #99DD59",
"F 	c #B1E576",
"G 	c #5F7A6D",
"H 	c #7BC832",
"I 	c #87D739",
"J 	c #A0E25E",
"K 	c #85A27B",
"L 	c #7E93AE",
"M 	c #A1DE5E",
"N 	c #ADD986",
"O 	c #73889B",
"P 	c #6FA449",
"Q 	c #73CE15",
"R 	c #85D633",
"S 	c #8AD539",
"T 	c #8FD640",
"U 	c #99DA4F",
"V 	c #B9E686",
"W 	c #6A808A",
"X 	c #79B645",
"Y 	c #78CC1A",
"Z 	c #B1631B",
"` 	c #B86726",
" .	c #BE6F32",
"..	c #C27439",
"+.	c #CA7E48",
"@.	c #CD844F",
"#.	c #D18957",
"$.	c #DA9568",
"%.	c #6F6864",
"&.	c #76AF47",
"*.	c #AE5B13",
"=.	c #DE0414",
"-.	c #DA191C",
";.	c #E01D24",
">.	c #E3252C",
",.	c #E72D34",
"'.	c #EA343B",
").	c #EE3C43",
"!.	c #F1444B",
"~.	c #F44C52",
"{.	c #F8595F",
"].	c #FA7272",
"^.	c #6B4D50",
"/.	c #699D41",
"(.	c #7FB312",
"_.	c #CA1B0D",
":.	c #D41212",
"<.	c #DA2323",
"[.	c #E13233",
"}.	c #E53939",
"|.	c #E94444",
"1.	c #EC4848",
"2.	c #F36262",
"3.	c #DC5D59",
"4.	c #614245",
"5.	c #568537",
"6.	c #8FD34D",
"7.	c #9C720C",
"8.	c #D3030A",
"9.	c #D51919",
"0.	c #DE2A2A",
"a.	c #EE6868",
"b.	c #B9352A",
"c.	c #59464D",
"d.	c #7689A8",
"e.	c #4A6B3C",
"f.	c #6EB42B",
"g.	c #95DA53",
"h.	c #BF2206",
"i.	c #E95F5E",
"j.	c #D34947",
"k.	c #95221B",
"l.	c #5D5A6A",
"m.	c #889CBF",
"n.	c #526862",
"o.	c #599227",
"p.	c #6AB126",
"q.	c #CE0000",
"r.	c #CF0808",
"s.	c #DC3131",
"t.	c #CB4642",
"u.	c #A91010",
"v.	c #6C3132",
"w.	c #4C6A47",
"x.	c #5C9B21",
"y.	c #5AA315",
"z.	c #89CD47",
"A.	c #B92C04",
"B.	c #D84443",
"C.	c #A90D0D",
"D.	c #942927",
"E.	c #899EC1",
"F.	c #62728C",
"G.	c #4E733E",
"H.	c #619F27",
"I.	c #539D0D",
"J.	c #65AD20",
"K.	c #87CA48",
"L.	c #AC8837",
"M.	c #BF3D31",
"N.	c #A5130A",
"O.	c #5B4F57",
"P.	c #8094B6",
"Q.	c #5C912E",
"R.	c #5A9D1C",
"S.	c #70B52D",
"T.	c #8BCD4B",
"U.	c #A5381B",
"V.	c #A70B08",
"W.	c #A12120",
"X.	c #843230",
"Y.	c #575562",
"Z.	c #54656C",
"`.	c #53852B",
" +	c #56A010",
".+	c #638C12",
"++	c #9A3014",
"@+	c #7F322E",
"#+	c #64474D",
"$+	c #58677F",
"%+	c #667690",
"&+	c #515F74",
"*+	c #4D664E",
"=+	c #4F7932",
"-+	c #548A25",
";+	c #516935",
">+	c #5B545B",
",+	c #5B6A82",
"'+	c #516564",
")+	c #6C7D99",
"!+	c #010608",
"~+	c #04090C",
"{+	c #28313D",
"]+	c #000000",
"^+	c #2F3846",
"/+	c #313B49",
"(+	c #090E12",
"_+	c #404C5E",
":+	c #1F2731",
"<+	c #202832",
"[+	c #445164",
"}+	c #0A1014",
"|+	c #2B3441",
"1+	c #252E3A",
"2+	c #3D495A",
"3+	c #616F88",
"4+	c #495669",
"5+	c #10161C",
"6+	c #4C5A6F",
"7+	c #677893",
"8+	c #0D1318",
"9+	c #141A21",
"0+	c #1C232C",
"a+	c #12181F",
"b+	c #070C10",
"c+	c #364151",
"d+	c #7E90B1",
"e+	c #7688A6",
"f+	c #3B4656",
"g+	c #424E60",
"h+	c #546279",
"                                                                                                                                ",
"                                                                                                                                ",
"                                                                                                                                ",
"                                                                                                                                ",
"                                                                                                                                ",
"                                                                                                                                ",
"                                                                                                                                ",
"                                                                                                                                ",
"                                                                                                                                ",
"                                                                                                                                ",
"                                                                                                                                ",
"                                                                                                                                ",
"                                                                                                                                ",
"                                                                                                                                ",
"                                                    . + @ # $ % $ # & * =                                                       ",
"                                                + - ; > , ' ) ! ~ { ] ^ / ( _ :                                                 ",
"                                            < [ } | 1 2 3 4 5 5 6 ! 7 8 9 0 a b _ .                                             ",
"                                          @ c d e f g h 1 i 3 j 5 6 k 7 l m n o ^ p =                                           ",
"                                        q r s t s u v w h 1 x 3 y 5 6 k z z 8 0 n A B =                                         ",
"                                      C D v s t t t s v f h 1 x 3 3 E 5 6 ~ F F n n A p                                         ",
"                                      G H u s t t t t t v f h I 1 3 3 y J J k 7 F 8 n K <                                       ",
"                                    L D g s t t t t t t t u v w h 1 x 3 4 M J k z F 0 N -                                       ",
"                                    O P g Q t t t t t t t t s v w R S T 3 U M J k 7 F V (                                       ",
"                                    W X h t t t t t t t t t t Y Z ` `  .....+.@.#.$.$.$.%.                                      ",
"                                    p &.1 t t t t t t t t t t t *.=.-.;.>.,.'.).!.~.{.].^..                                     ",
"                                    & /.3 s t t t t t t t s t t (._.:.-.<.>.[.}.|.1.2.3.4..                                     ",
"                                    q 5.6.h t Q t t t t t t t t Q 7.8.:.9.<.0.[.}.|.a.b.c..                                     ",
"                                    d.e.f.g.R Q t t t t t t t t t (.h.8.:.9.<.0.[.i.j.k.l.                                      ",
"                                    m.n.o.p.g.1 t t t t t t t t t t 7.q.r.r.9.s.i.t.u.v.*                                       ",
"                                      * w.x.y.z.E h s t t t t t t t (.A.q.9.B.3.b.C.D.l.:                                       ",
"                                      E.F.G.H.I.J.K.g.i I R v v v v R L.B.j.M.N.C.D.O.P.                                        ",
"                                        = F.w.Q.R.I.y.f.S.6.T.6.6.K.K.S.U.V.C.W.X.Y.+                                           ",
"                                          m.@ Z.G.`.R.y. +I.I.I.I.I.I..+++k.@+#+$+P.                                            ",
"                                            m.< %+&+*+e.=+`.-+-+-+`.`.;+4.>+,+C m..                                             ",
"                                              . : P.* @ ,+$ Z.n.'+% # F.)++ = .                                                 ",
"                                                  m.= = P.L < d.< < < = : E.                                                    ",
"                                                                                                                                ",
"                                                                                                                                ",
"                                                                                                                                ",
"                                                                                                                                ",
"                                                                                                                                ",
"!+!+!+!+~+{+m.                                                                                                                  ",
"]+]+    F.!+^+                                                                                                                  ",
"!+!+      !+~+                                                                                                                  ",
"]+!+      !+~+      /+~+(+_+    + :+~+~+{+= d.<+!+~+{+=     [+}+(+[+      !+!+    !+!+    !+]+|+<+    _+}+~+1+=     /+~+(+2+    ",
"!+!+    ,+!+/+    2+!+,+3+!+4+  5+!+= * !+<+5+!+= C !+<+  6+!+$+$+!+6+    !+!+    !+!+    ]+!+7+E.  [+!+,+d.!+<+  2+!+,+3+!+4+  ",
"!+]+!+!+!+{+m.    8+!+E.  !+9+  (+!+0+,+    (+!+0+$+      a+]+  E.!+5+    ]+!+    ]+!+    !+]+      5+!+          8+!+E.  !+9+  ",
"!+!+  )+!+0+      !+!+!+]+!+!+  3+b+!+!+(+F.3+b+!+!+(+F.  ~+!+    !+!+    !+!+    !+!+    !+!+      !+!+          !+!+]+!+!+!+  ",
"]+]+    6+!+_+    }+!+              @ c+!+b+    @ c+!+b+  a+!+  E.!+a+    !+!+    !+!+    !+!+      8+!+          }+!+          ",
"!+!+      8+!+d+  c+!+$+e+!+0+  0+!+C = !+9+:+!+C d+!+9+  4+!+$+$+!+&+    a+!+e+4+]+!+    ]+!+      [+!+,+e+!+:+  c+!+$+e+!+0+  ",
"!+!+      6+!+{+    f+(+~+1+d+  : |+~+~+<+< : |+~+~+<+<     g+(+(+4+      @ 8+9+* !+!+    !+!+        2+(+~+{+=     f+(+~+{+d+  ",
"                            P.^+b+b+^+:                                                                                         ",
"                          m.}+9+= = a+8+                                      * 1+                                              ",
"                          _+!+F.    F.!+4+                                    !+!+                                              ",
"                          9+!+m.    : !+0+    !+!+    !+!+      [+(+(+[+    !+!+!+!+  P.1+~+!+0+)+                              ",
"                          !+!+        !+~+    ]+!+    !+!+    6+!+$+$+!+6+    ]+!+    0+F.  < ]+5+                              ",
"                          ~+!+        !+!+    !+!+    !+!+    a+]+  E.!+5+    !+]+      d.[+0+!+!+                              ",
"                          9+!+=       !+8+    !+!+    ]+!+    ~+!+    !+!+    !+!+    h+!+|+e+]+!+                              ",
"                          _+!+$+  ^+,+!+^+    !+]+    !+]+    a+!+  . !+a+    !+!+    (+]+    !+]+                              ",
"                          : 8+8+< 4+!+!+*     9+!+e+[+!+!+    4+]+$+$+!+&+    ~+!+    8+!+C h+!+!+                              ",
"                            P.^+(+~+1+(+F.    @ }+9+C !+!+      _+8+(+[+      F.~+1+  F.}+(+f+!+!+                              ",
"                                      C /+                                                                                      ",
"                                                                                                                                ",
"                                                                                                                                "};
