/* XPM */
static char * time_xpm[] = {
"28 28 256 2",
"  	c None",
". 	c #000200",
"+ 	c #171816",
"@ 	c #29240F",
"# 	c #242624",
"$ 	c #2A2617",
"% 	c #2A281D",
"& 	c #302910",
"* 	c #282A27",
"= 	c #2F2E27",
"- 	c #313330",
"; 	c #383424",
"> 	c #3E371D",
", 	c #363835",
"' 	c #373936",
") 	c #3B3D3A",
"! 	c #3E403D",
"~ 	c #BA2839",
"{ 	c #494A48",
"] 	c #504A34",
"^ 	c #C42833",
"/ 	c #5F4560",
"( 	c #6D4258",
"_ 	c #A73344",
": 	c #BE2D3D",
"< 	c #4C4E4B",
"[ 	c #BE2E42",
"} 	c #544A66",
"| 	c #555029",
"1 	c #C92E3C",
"2 	c #A43849",
"3 	c #6F4661",
"4 	c #AD3848",
"5 	c #CF333B",
"6 	c #5B516D",
"7 	c #C83744",
"8 	c #86495A",
"9 	c #724F67",
"0 	c #B44054",
"a 	c #93495F",
"b 	c #95495B",
"c 	c #64566E",
"d 	c #71536A",
"e 	c #69556E",
"f 	c #9D4858",
"g 	c #B04353",
"h 	c #76526B",
"i 	c #5B5D5A",
"j 	c #5D5D55",
"k 	c #B04459",
"l 	c #7C526D",
"m 	c #9E4A5F",
"n 	c #AB4758",
"o 	c #D53C4B",
"p 	c #5F5B76",
"q 	c #914E67",
"r 	c #5A5F61",
"s 	c #C04254",
"t 	c #79556E",
"u 	c #885266",
"v 	c #C24350",
"w 	c #994E64",
"x 	c #735874",
"y 	c #895367",
"z 	c #A74B5E",
"A 	c #82556B",
"B 	c #B4485C",
"C 	c #9C4F61",
"D 	c #88546D",
"E 	c #A24E63",
"F 	c #656255",
"G 	c #AF4B61",
"H 	c #8B5569",
"I 	c #7B5977",
"J 	c #7F596D",
"K 	c #96536C",
"L 	c #A5505F",
"M 	c #7E5A73",
"N 	c #B24D5D",
"O 	c #65645C",
"P 	c #CF4651",
"Q 	c #6B607D",
"R 	c #8E586C",
"S 	c #A65266",
"T 	c #646663",
"U 	c #66637E",
"V 	c #BA4D61",
"W 	c #696379",
"X 	c #E14548",
"Y 	c #7F5D7B",
"Z 	c #895B72",
"` 	c #815D76",
" .	c #666765",
"..	c #DF4553",
"+.	c #B45065",
"@.	c #A1556C",
"#.	c #C34D5A",
"$.	c #9A5770",
"%.	c #B15360",
"&.	c #676966",
"*.	c #CD4D58",
"=.	c #C54F61",
"-.	c #6A6782",
";.	c #985B72",
">.	c #935D71",
",.	c #9F5A6D",
"'.	c #6E677E",
").	c #AB576B",
"!.	c #85617A",
"~.	c #73667E",
"{.	c #C55067",
"].	c #C05366",
"^.	c #935F77",
"/.	c #C9525E",
"(.	c #8F6178",
"_.	c #6E6D65",
":.	c #A95B6C",
"<.	c #A85B71",
"[.	c #6C6E6B",
"}.	c #8E627E",
"|.	c #6E6B86",
"1.	c #89647D",
"2.	c #9D5F76",
"3.	c #95617A",
"4.	c #DA505A",
"5.	c #D3525D",
"6.	c #786A83",
"7.	c #BE5868",
"8.	c #86687F",
"9.	c #8C6780",
"0.	c #99647D",
"a.	c #8B6887",
"b.	c #90687D",
"c.	c #BA5D74",
"d.	c #74708C",
"e.	c #876B88",
"f.	c #777087",
"g.	c #976980",
"h.	c #7E7089",
"i.	c #A0697C",
"j.	c #827090",
"k.	c #757774",
"l.	c #BC636C",
"m.	c #D55C68",
"n.	c #7B748B",
"o.	c #AD677A",
"p.	c #7E7486",
"q.	c #AD6881",
"r.	c #7A7692",
"s.	c #7E778E",
"t.	c #797B78",
"u.	c #8F738F",
"v.	c #B9697A",
"w.	c #7A7A8F",
"x.	c #7D7996",
"y.	c #C36A79",
"z.	c #7D7F7C",
"A.	c #AD708C",
"B.	c #9B7784",
"C.	c #977890",
"D.	c #857E95",
"E.	c #BF6F80",
"F.	c #AA7694",
"G.	c #8A8092",
"H.	c #828298",
"I.	c #A57894",
"J.	c #868293",
"K.	c #888595",
"L.	c #868885",
"M.	c #A27E9E",
"N.	c #A28093",
"O.	c #89899E",
"P.	c #A3839B",
"Q.	c #8B8D8A",
"R.	c #AE8392",
"S.	c #8F8C9C",
"T.	c #B68496",
"U.	c #978CAA",
"V.	c #8C90AB",
"W.	c #9191A7",
"X.	c #8F93A2",
"Y.	c #9292B4",
"Z.	c #8F97B7",
"`.	c #979996",
" +	c #989BB7",
".+	c #B7A237",
"++	c #9F9FA9",
"@+	c #A7A8B2",
"#+	c #ACAAAE",
"$+	c #ADAFAC",
"%+	c #D3B227",
"&+	c #CFB63B",
"*+	c #B3B5B2",
"=+	c #C4B1B3",
"-+	c #D1B946",
";+	c #D3BB50",
">+	c #B8B9C3",
",+	c #B9BAC4",
"'+	c #BDBABF",
")+	c #BABCB9",
"!+	c #D8BF4D",
"~+	c #D8B5BC",
"{+	c #D9C25D",
"]+	c #BFBFC9",
"^+	c #D1BDC0",
"/+	c #C1C1CB",
"(+	c #D5BEBB",
"_+	c #DDC769",
":+	c #C1C6C9",
"<+	c #C8C5CA",
"[+	c #DDC870",
"}+	c #CBC5C4",
"|+	c #D4C88F",
"1+	c #C8CAC7",
"2+	c #E0CC74",
"3+	c #E0CC7A",
"4+	c #E1CF83",
"5+	c #D9CF9B",
"6+	c #E3D38D",
"7+	c #D0D2CF",
"8+	c #D4D1D6",
"9+	c #E4D595",
"0+	c #E1D6A2",
"a+	c #D4D6D3",
"b+	c #D1D7D9",
"c+	c #E9D892",
"d+	c #E5D89E",
"e+	c #D6D8D5",
"f+	c #EEDB8F",
"g+	c #D9DBD7",
"h+	c #DCDEDB",
"i+	c #EADFAA",
"j+	c #DDDFDC",
"k+	c #DBE0E3",
"l+	c #DEE0DD",
"m+	c #E6E0CB",
"n+	c #DFE1DE",
"o+	c #EAE3BA",
"p+	c #EFE4C3",
"q+	c #E3E5E1",
"r+	c #EAE6D7",
"s+	c #F0E3E4",
"t+	c #EFE6CB",
"u+	c #E6E8E5",
"v+	c #E7E9E6",
"w+	c #E8EAE7",
"x+	c #F1EBD6",
"y+	c #EFEDD1",
"z+	c #ECEEEB",
"A+	c #EEF0ED",
"B+	c #EFF1EE",
"C+	c #F0F2EF",
"D+	c #EFF4F7",
"E+	c #F2F5F1",
"F+	c #F8FBF7",
"G+	c #FDFFFC",
"                    ^ 1 ^ ^ ~ [ ^ ^                     ",
"              ^ ^ ^ ^ q.v.y.T.E.R.v 7 ^ ^               ",
"            ^ B i.j.r.D.H.K.K.O.O.V. +T.#.^             ",
"          ^ V x.|.K.@+<+g+T L.j+<+++X.V.5.m.^           ",
"        ^ ).!.b.'+g+w+A+B+&.F 0+d+x+k+)+W.o 4.^         ",
"      ^ :.t B.~+v+w+z+z+a+T _.5+|+-+2+C+^+l.#...^       ",
"    ^ %.M B.l+u+u+w+w+A+D+m+|+6+9+i+{+;+y+(+P 7.5.^     ",
"  ^ g m >.b+q+u+u+w+A+B+D+t+[+3+4+6+d+c+| m+}+5 /.^ ^   ",
"  ^ 9.e =+r+q+u+w+w+A+B+D+p+{+[+2+3+f+] % r+s+X 7 *.^   ",
"  ^ M x.q+k+q+v+w+w+A+A+D+o+;+{+_+[+> * F+E+B+g+S.o.^ ^ ",
"^ ` 6 ]+q+q+k+v+v+v+A+A+D+o+&+!+;+@ < G+E+B+B+A+++<.N ^ ",
"^ 1.'.8+n+j+r+v+v+v+A+A+E+i+%+.+$ &.G+E+E+B+A+z+:+H.N.^ ",
"^ 1.x.h+l+g+n+v+v+v+z+B+&.= & ; *+G+E+E+B+B+q+w+g+K.P.^ ",
"^ 1.K.q+Q.{ [.7+v+v+z+q+! g+)+, F+E+E+B+E+[.i T j+H.P.^ ",
"^ 8.K.k+r _.t.q+q+u+z+a+- v+1+) E+D+A+A+z+T O z.h+J.N.^ ",
"^ 1.n.h+h+g+r+k+q+v+v+A+! ' # - E+z+z+z+z+w+v+v+a+H.C.^ ",
"^ : d g+h+g+h+r+q+u+v+v+z+v+$+. i E+w+z+w+w+v+q+<+w.5 ^ ",
"^ ^ ( /+l+g+h+h+h+k+q+q+q+q+u+* + h+w+v+v+q+v+v+#+d.^ ^ ",
"  ^ ^ '.w+g+g+h+h+k+q+k+q+q+u+1+. `.w+w+v+r+q+a+J.9.^   ",
"  ^ ^ } ,+g+g+g+h+j+n+r+q+q+r+w+k+w+q+q+k+k+q+'+U 2.^   ",
"  Y.^ ^ Q j+g+g+g+h+h+j+n+k+q+j+k+r+h+r+k+k+a+n.h.^ ^   ",
"    a.^ e s.z+g+g+g+g+h+j+ .k.1+j+k+h+h+h+q+K.` ^ ^     ",
"      ^ ^ / s.g+g+g+g+g+g+j i a+j+j+g+j+a+K.x g.^       ",
"        ^ ^ c W >+v+h+g+g+ .T g+h+j+q+'+f.-.3.^         ",
"          ^ ^ ~.} '.]+8+j+j+j+j+8+]+p.6 6.@.^           ",
"            ^ ^ ^ U } p n.G.G.n.W 3 M 9.E ^             ",
"              F.^ ^ ^ H ^ K ^ R ^ ^ ^ ^ ^               ",
"                    ^ ^ ^ ^ ^ ^ e.^                     "};
